# xmcd CD database file
#
# Track frame offsets:
#	150
#	48906
#	65110
#	96683
#	104967
#	126682
#	138823
#	163757
#	173544
#	180565
#	186628
#	197691
#	209712
#	231057
#	245711
#
# Disc length: 3471 seconds
#
# Revision: 0
# Processed by: cddbd v1.5.1PL2 Copyright (c) Steve Scherf et al.
# Submitted via: CDex 1.51
#
DISCID=f40d8d0f
DTITLE=Bobby McFerrin - 2002 Jazz Burghausen
DYEAR=2002
DGENRE=Jazz
TTITLE0=Bobby McFerrin - Improvisation 1
TTITLE1=Bobby McFerrin - Improvisation 2
TTITLE2=Bobby McFerrin - Improvisation 3 (feat. Maria João)
TTITLE3=Bobby McFerrin - Intermezzo (Bring Out)
TTITLE4=Bobby McFerrin - Ohne Musi Geht Nix (feat. Turlhofer Duo)
TTITLE5=Bobby McFerrin - Improvisation 4 (Bring Out)
TTITLE6=Bobby McFerrin - Improvisation 5
TTITLE7=Bobby McFerrin - Schuhplattler (feat. Trachtenverein Edelweiss)
TTITLE8=Bobby McFerrin - Improvisation 6 (feat. Trachtenverein Edelweiss)
TTITLE9=Bobby McFerrin - Improvisation 7 (feat. Trachtenverein Edelweiss)
TTITLE10=Bobby McFerrin - Intermezzo
TTITLE11=Bobby McFerrin - Blackbird
TTITLE12=Bobby McFerrin - Intermezzo from Carmen (feat. Aziza Mustafa Sadeh)
TTITLE13=Bobby McFerrin - Improvisation 8 (feat. Aziza Mustafa Sadeh)
TTITLE14=Bobby McFerrin - Drive
EXTD=YEAR: 2002
EXTT0=
EXTT1=
EXTT2=
EXTT3=
EXTT4=
EXTT5=
EXTT6=
EXTT7=
EXTT8=
EXTT9=
EXTT10=
EXTT11=
EXTT12=
EXTT13=
EXTT14=
PLAYORDER=
